<?xml version="1.0" encoding="UTF-8"?>
<svg enable-background="new 0 0 202 287" version="1.1" viewBox="0 0 202 287" xml:space="preserve" xmlns="http://www.w3.org/2000/svg" xmlns:cc="http://creativecommons.org/ns#" xmlns:dc="http://purl.org/dc/elements/1.1/" xmlns:rdf="http://www.w3.org/1999/02/22-rdf-syntax-ns#"><metadata><rdf:RDF><cc:Work rdf:about=""><dc:format>image/svg+xml</dc:format><dc:type rdf:resource="http://purl.org/dc/dcmitype/StillImage"/><dc:title/></cc:Work></rdf:RDF></metadata><g>
<path d="m173 1c9.885-1e-6 19.77-1e-6 30-1e-6 0 3.3368 0 6.6854-0.46683 10.517-4.13 0.4814-7.8097 0.69963-11.452 0.42523-5.2265-0.39372-7.506 3.1419-8.8569 6.9843-1.1044 3.1411-1.0779 6.7474-1.186 10.159-0.42462 13.401 0.26329 26.922-1.3073 40.179-1.5981 13.49-9.1542 23.764-22.484 28.729-10.11 3.7657-20.519 5.9996-31.386 6.1583-1.6346 0.02388-4.5569 1.9899-4.6395 3.2094-0.4568 6.7484-0.21875 13.544-0.21875 20.606 7.594-0.40441 14.708-0.78326 21.632-1.152v13.497h-21.434v9.2177c2.742 0.51445 5.2576 1.116 7.8083 1.4444 20.214 2.6029 38.196 9.6833 52.492 24.929 12.261 13.077 15.547 33.422 9.3498 49.499-6.6793 17.329-20.272 27.474-37.009 33.479-10.543 3.783-21.629 6.054-32.562 9.0279v8.2453h21.72v11.843c-22.688 0-45.375 0-68.431-0.44757-0.31897-3.7801-0.26968-7.1126 0.1831-10.489 2.9612-0.3826 5.5189-0.72131 8.3326-0.70404 4.5253 0.35593 8.7947 0.35593 12.994 0.35593 1.6725-9.9352 1.6728-9.9371-7.4165-11.509-0.65585-0.11346-1.3253-0.14743-1.9822-0.25595-16.339-2.6994-31.558-8.0063-44.574-18.694-24.661-20.25-24.967-55.057-0.5648-75.597 10.937-9.2062 23.525-14.974 37.531-17.665 5.8053-1.1154 11.639-2.0836 17.607-3.1452 0-2.2436 0.045616-3.8991-0.013092-5.5509-0.056435-1.5877-0.22089-3.1715-0.35651-5.0093-3.8889 0-7.2128-0.057602-10.532 0.036193-0.95794 0.02707-1.9036 0.48972-3.2913 0.71127-3.0533-0.095169-5.67-0.14897-8.2964-0.65265 0.020027-4.0721 0.049652-7.6942 0.48979-11.343 2.9966-0.3684 5.5826-0.7101 8.4329-0.70514 4.5022 0.34666 8.7402 0.34666 12.913 0.34666v-22.896c-8.9333-1.319-17.532-2.1656-25.944-3.9148-20.25-4.2111-30.988-15.134-33.269-35.629-1.4271-12.823-0.6039-25.894-0.85894-38.852-0.23849-12.117-3.6224-15.438-15.47-15.352-1.1609 0.008446-2.3212 0.10708-3.9146 0.097571-5.2275-2.9238-2.5821-6.6218-1.5703-10.135 9.3542 0 18.708 0 28.657 0.3616 5.4434 1.1387 9.923 2.953 11.805 7.7258 1.9723 5.0011 4.0174 10.289 4.3532 15.559 0.88217 13.842 0.078277 27.818 1.4165 41.598 1.1926 12.281 8.3181 21.628 21.794 24.088 4.2876 1.3623 8.3845 2.3911 13.028 3.5573v-83.163c-4.859 0.38688-9.3816 0.74698-14.344 1.1822-2.7961 0.025172-5.1528-0.024787-7.5119-0.5224-0.067558-3.7605-0.13258-7.0733-0.1976-10.386 0.44444 0 0.88889 0 1.9783 0.27546 1.4516 0.42011 2.2581 0.68961 3.0651 0.69094 15.749 0.026067 31.497 0.043038 47.245-0.020643 1.2383-0.005007 2.4742-0.61626 3.7113-0.94576 4.0246 0 8.0491 0 12.537 0.46297 0.46346 3.7353 0.46346 7.0076 0.46346 10.693h-21.834c0 26.241 0 52.042-0.15649 78.198-1.7051 3.1917 0.26139 3.0927 2.0163 2.7775 4.0734-0.7317 8.1729-1.4236 12.161-2.5027 11.589-3.1352 18.251-10.965 20.576-22.548 0.71462-3.5601 1.1232-7.2332 1.1855-10.863 0.1765-10.291-0.063232-20.59 0.1701-30.878 0.25252-11.135 3.2272-20.765 15.382-24.551 0.22598-0.07038 0.33469-0.51728 0.49811-0.78851m-89.808 253.66c4.2504 1.1124 8.5008 2.2248 13.038 3.4123v-100.13c-4.8916 1.5449-9.0739 2.8659-13.987 4.3039-15.427 5.1786-26.628 14.627-29.912 31.211-2.2389 11.307-1.8914 22.559 1.4958 33.876 3.5994 12.027 16.416 24.554 29.364 27.323m37.824-91.723c0.0457 30.351 0.0914 60.701-0.12361 91.672 0.45663 0.94223 0.87175 2.6842 1.3759 2.7104 14.711 0.76355 33.33-11.18 39.645-25.215 4.88-10.847 5.1484-22.281 3.9323-33.768-2.3952-22.624-23.497-40.724-45.508-39.08 0.28451 0.95998 0.55029 1.8568 0.67889 3.6806z" fill="#D30001"/>




<path d="m121.2 90.688c11.996-1.8384 21.029-12.459 21.863-25.1 0.8919-13.514 0.42333-27.117 1.3113-40.631 0.34605-5.2669 2.3862-10.55 4.363-15.545 1.8852-4.7638 6.354-6.5888 11.33-7.7143 4.1473-0.36328 8.1719-0.36328 12.66-0.36328 0.29976 0.27122 0.19106 0.71813-0.0349 0.78851-12.155 3.7858-15.13 13.416-15.382 24.551-0.23334 10.289 6e-3 20.587-0.17011 30.878-0.0623 3.6297-0.47088 7.3028-1.1855 10.863-2.3251 11.583-8.9874 19.413-20.576 22.548-3.9885 1.079-8.088 1.771-12.161 2.5027-1.7549 0.31522-3.7213 0.41422-2.0163-2.7775z" fill="#02007f"/>
<path d="m61.463 288c-0.46318-3.7946-0.46318-7.5891-0.46318-11.651 4.4041 0 8.6208 0 13.093 0.37909 0.20631 3.7116 0.15701 7.0442 0.007325 10.824-4.1249 0.44757-8.1495 0.44757-12.637 0.44757z" fill="#000080"/>
<path d="m16.962 12.114c-5.0095-0.036795-10.019-0.073591-15.495-0.11238-0.46675-3.6016-0.46675-7.2012-0.46675-11.002h13.526c-0.53763 3.5135-3.183 7.2115 2.0365 10.364 0.42478 0.2946 0.39957 0.75082 0.39957 0.75082z" fill="#08007B"/>
<path d="m74.198 11.386c-4.2438 0.44765-8.4902 0.44765-13.198 0.44765v-10.371c4.0245-0.46303 8.0491-0.46303 12.537-0.46303 0.52821 3.3128 0.59322 6.6256 0.66078 10.386z" fill="#000080"/>
<path d="m129.53 1c-0.76837 0.3295-2.0043 0.94076-3.2426 0.94576-15.748 0.063681-31.497 0.04671-47.245 0.020643-0.80694-0.001336-1.6134-0.27083-2.7317-0.69094 17.376-0.27546 35.064-0.27546 53.22-0.27546z" fill="#AA0019"/>


<path d="m83.085 276.36c0.27756-10.401 0.27241-10.352-9.3395-11.367-14.209-1.4991-27.436-6.243-39.093-14.256-11.147-7.6626-20.428-17.319-22.974-31.506-2.9484-16.429-0.47869-31.338 11.519-44.038 13.826-14.635 31.079-21.644 50.574-24.215 1.4334-0.18907 2.8166-0.77632 4.2503-0.93979 1.4573-0.16614 2.9482-0.036698 4.9681-0.036698 0-3.1372 0-6.0773-0.033821-9.4703 0.91745-0.71576 1.8631-1.1784 2.821-1.2055 3.3196-0.093795 6.6434-0.036193 10.532-0.036193 0.13561 1.8378 0.30007 3.4216 0.35651 5.0093 0.058708 1.6518 0.013092 3.3073 0.013092 5.5509-5.9687 1.0615-11.802 2.0298-17.607 3.1452-14.006 2.691-26.593 8.4585-37.531 17.665-24.402 20.54-24.096 55.347 0.5648 75.597 13.016 10.688 28.236 15.995 44.574 18.694 0.6569 0.10852 1.3263 0.14249 1.9822 0.25595 9.0893 1.5721 9.089 1.574 7.4165 11.509-4.1997 0-8.469 0-12.994-0.35593z" fill="#04007D"/>
<path d="m17.089 12.433c-0.12691-0.31822-0.1017-0.77444-0.093705-1.0028 1.1686-0.28509 2.3289-0.38373 3.4898-0.39218 11.847-0.086183 15.231 3.2348 15.47 15.352 0.25504 12.958-0.56816 26.029 0.85894 38.852 2.2809 20.496 13.019 31.418 33.269 35.629 8.4114 1.7492 17.01 2.5958 25.944 3.9148v22.896c-4.173 0-8.411 0-12.913-0.34666-0.21409-6.3287-0.39895-12.325-0.033257-18.288 0.25371-4.1368-1.8152-4.657-5.2039-5.1414-9.7383-1.3918-19.71-2.2599-29.044-5.1163-14.651-4.4834-23.18-15.483-24.629-30.584-1.3068-13.622-0.79565-27.413-1.2412-41.124-0.17544-5.3988-0.79546-10.774-5.8724-14.649z" fill="#02007F"/>
<path d="m83.008 254.33c-0.12707-30.645-0.07061-60.963-0.024201-91.74 4.1722-1.7805 8.3545-3.1014 13.246-4.6464v100.13c-4.5376-1.1875-8.788-2.2999-13.222-3.7396z" fill="#07007C"/>
<path d="m121.02 254.3c21.002-5.8938 32.232-23.232 31.988-43.143-0.093979-7.6643-0.34013-15.13-2.6631-22.705-4.1128-13.411-13.664-20.525-25.756-25.445-0.88434-0.3598-1.792-0.66228-3.0636-0.99403-0.64053-0.89941-0.90632-1.7962-1.1908-2.7562 22.011-1.6446 43.113 16.456 45.508 39.08 1.2162 11.487 0.94772 22.921-3.9323 33.768-6.3145 14.035-24.934 25.979-39.645 25.215-0.50417-0.026153-0.9193-1.7682-1.2456-3.0202z" fill="#03007E"/>
<path d="m83.025 90.332c-0.18654-26.211-0.18233-52.089-0.52721-78.233 4.1735-0.62618 8.6962-0.98628 13.555-1.3732v83.163c-4.6434-1.1662-8.7403-2.195-13.028-3.5573z" fill="#010080"/>
<path d="m74.19 139.38c-4.1466 0.44988-8.3029 0.44988-12.825 0.44988v-12.532c3.9647 0 8.1944 0 12.664 0.38276 0.2103 4.0049 0.18067 7.6271 0.16064 11.699z" fill="#000080"/>
</g></svg>
